<mxfile host="app.diagrams.net" modified="2025-04-22T02:21:15.832Z" agent="Mozilla/5.0 (Windows NT 10.0; Win64; x64) AppleWebKit/537.36 (KHTML, like Gecko) Chrome/135.0.0.0 Safari/537.36" etag="DJrufn-nUM8dLnw975Rt" version="24.6.4" type="device">
  <diagram name="第 1 页" id="miE-J7BIeZhGlf1HjPvK">
    <mxGraphModel dx="1221" dy="618" grid="1" gridSize="10" guides="1" tooltips="1" connect="1" arrows="1" fold="1" page="1" pageScale="1" pageWidth="827" pageHeight="1169" math="0" shadow="0">
      <root>
        <mxCell id="0" />
        <mxCell id="1" parent="0" />
        <mxCell id="vu192b592DpXr0duYgb9-13" style="edgeStyle=orthogonalEdgeStyle;rounded=0;orthogonalLoop=1;jettySize=auto;html=1;exitX=0.5;exitY=0;exitDx=0;exitDy=0;exitPerimeter=0;entryX=0;entryY=0.5;entryDx=0;entryDy=0;" edge="1" parent="1" source="vu192b592DpXr0duYgb9-1" target="vu192b592DpXr0duYgb9-11">
          <mxGeometry relative="1" as="geometry" />
        </mxCell>
        <mxCell id="vu192b592DpXr0duYgb9-19" style="edgeStyle=orthogonalEdgeStyle;rounded=0;orthogonalLoop=1;jettySize=auto;html=1;exitX=0.5;exitY=0.5;exitDx=0;exitDy=0;exitPerimeter=0;entryX=0;entryY=0.5;entryDx=0;entryDy=0;" edge="1" parent="1" source="vu192b592DpXr0duYgb9-1" target="vu192b592DpXr0duYgb9-9">
          <mxGeometry relative="1" as="geometry" />
        </mxCell>
        <mxCell id="vu192b592DpXr0duYgb9-20" style="edgeStyle=orthogonalEdgeStyle;rounded=0;orthogonalLoop=1;jettySize=auto;html=1;exitX=0.5;exitY=0.5;exitDx=0;exitDy=0;exitPerimeter=0;entryX=0;entryY=0.5;entryDx=0;entryDy=0;" edge="1" parent="1" source="vu192b592DpXr0duYgb9-1" target="vu192b592DpXr0duYgb9-10">
          <mxGeometry relative="1" as="geometry" />
        </mxCell>
        <mxCell id="vu192b592DpXr0duYgb9-1" value="Actor" style="shape=umlActor;verticalLabelPosition=bottom;verticalAlign=top;html=1;outlineConnect=0;" vertex="1" parent="1">
          <mxGeometry x="10" y="160" width="30" height="60" as="geometry" />
        </mxCell>
        <mxCell id="vu192b592DpXr0duYgb9-3" value="Start Adventure" style="rounded=0;whiteSpace=wrap;html=1;" vertex="1" parent="1">
          <mxGeometry x="679.5" y="160" width="120" height="60" as="geometry" />
        </mxCell>
        <mxCell id="vu192b592DpXr0duYgb9-15" style="edgeStyle=orthogonalEdgeStyle;rounded=0;orthogonalLoop=1;jettySize=auto;html=1;exitX=1;exitY=0.5;exitDx=0;exitDy=0;entryX=0;entryY=0.5;entryDx=0;entryDy=0;" edge="1" parent="1" source="vu192b592DpXr0duYgb9-4" target="vu192b592DpXr0duYgb9-5">
          <mxGeometry relative="1" as="geometry" />
        </mxCell>
        <mxCell id="vu192b592DpXr0duYgb9-4" value="L&lt;span style=&quot;background-color: initial;&quot;&gt;ibrary&lt;/span&gt;" style="rounded=0;whiteSpace=wrap;html=1;" vertex="1" parent="1">
          <mxGeometry x="240" y="40" width="120" height="60" as="geometry" />
        </mxCell>
        <mxCell id="vu192b592DpXr0duYgb9-16" style="edgeStyle=orthogonalEdgeStyle;rounded=0;orthogonalLoop=1;jettySize=auto;html=1;exitX=1;exitY=0.5;exitDx=0;exitDy=0;entryX=0;entryY=0.5;entryDx=0;entryDy=0;" edge="1" parent="1" source="vu192b592DpXr0duYgb9-5" target="vu192b592DpXr0duYgb9-8">
          <mxGeometry relative="1" as="geometry" />
        </mxCell>
        <mxCell id="vu192b592DpXr0duYgb9-5" value="Choose Word Book&lt;div&gt;(Theme)&lt;/div&gt;" style="rounded=0;whiteSpace=wrap;html=1;" vertex="1" parent="1">
          <mxGeometry x="400" y="40" width="120" height="60" as="geometry" />
        </mxCell>
        <mxCell id="vu192b592DpXr0duYgb9-18" style="edgeStyle=orthogonalEdgeStyle;rounded=0;orthogonalLoop=1;jettySize=auto;html=1;exitX=0.5;exitY=1;exitDx=0;exitDy=0;" edge="1" parent="1" source="vu192b592DpXr0duYgb9-6" target="vu192b592DpXr0duYgb9-3">
          <mxGeometry relative="1" as="geometry" />
        </mxCell>
        <mxCell id="vu192b592DpXr0duYgb9-6" value="Teacher Guida&lt;span style=&quot;background-color: initial;&quot;&gt;nce&lt;/span&gt;" style="rounded=0;whiteSpace=wrap;html=1;align=center;" vertex="1" parent="1">
          <mxGeometry x="679.5" y="40" width="121" height="60" as="geometry" />
        </mxCell>
        <mxCell id="vu192b592DpXr0duYgb9-17" style="edgeStyle=orthogonalEdgeStyle;rounded=0;orthogonalLoop=1;jettySize=auto;html=1;exitX=1;exitY=0.5;exitDx=0;exitDy=0;entryX=0;entryY=0.5;entryDx=0;entryDy=0;" edge="1" parent="1" source="vu192b592DpXr0duYgb9-8" target="vu192b592DpXr0duYgb9-6">
          <mxGeometry relative="1" as="geometry" />
        </mxCell>
        <mxCell id="vu192b592DpXr0duYgb9-8" value="Player Learning" style="ellipse;whiteSpace=wrap;html=1;" vertex="1" parent="1">
          <mxGeometry x="550" y="40" width="110" height="60" as="geometry" />
        </mxCell>
        <mxCell id="vu192b592DpXr0duYgb9-22" style="edgeStyle=orthogonalEdgeStyle;rounded=0;orthogonalLoop=1;jettySize=auto;html=1;exitX=1;exitY=0.5;exitDx=0;exitDy=0;entryX=0;entryY=0.5;entryDx=0;entryDy=0;" edge="1" parent="1" source="vu192b592DpXr0duYgb9-9" target="vu192b592DpXr0duYgb9-21">
          <mxGeometry relative="1" as="geometry" />
        </mxCell>
        <mxCell id="vu192b592DpXr0duYgb9-9" value="Sett&lt;span style=&quot;background-color: initial;&quot;&gt;ing&lt;/span&gt;" style="rounded=0;whiteSpace=wrap;html=1;" vertex="1" parent="1">
          <mxGeometry x="80" y="160" width="120" height="60" as="geometry" />
        </mxCell>
        <mxCell id="vu192b592DpXr0duYgb9-10" value="New Game" style="rounded=0;whiteSpace=wrap;html=1;" vertex="1" parent="1">
          <mxGeometry x="80" y="280" width="120" height="60" as="geometry" />
        </mxCell>
        <mxCell id="vu192b592DpXr0duYgb9-14" style="edgeStyle=orthogonalEdgeStyle;rounded=0;orthogonalLoop=1;jettySize=auto;html=1;exitX=1;exitY=0.5;exitDx=0;exitDy=0;entryX=0;entryY=0.5;entryDx=0;entryDy=0;" edge="1" parent="1" source="vu192b592DpXr0duYgb9-11" target="vu192b592DpXr0duYgb9-4">
          <mxGeometry relative="1" as="geometry" />
        </mxCell>
        <mxCell id="vu192b592DpXr0duYgb9-11" value="Continue Game" style="rounded=0;whiteSpace=wrap;html=1;" vertex="1" parent="1">
          <mxGeometry x="80" y="40" width="120" height="60" as="geometry" />
        </mxCell>
        <mxCell id="vu192b592DpXr0duYgb9-21" value="Difficulty" style="rounded=0;whiteSpace=wrap;html=1;" vertex="1" parent="1">
          <mxGeometry x="280" y="160" width="120" height="60" as="geometry" />
        </mxCell>
      </root>
    </mxGraphModel>
  </diagram>
</mxfile>
